<svg xmlns="http://www.w3.org/2000/svg" width="65" height="64" viewBox="0 0 65 64" fill="none">
<path d="M39.4166 22.6667C37.3348 22.127 34.4417 21.3334 32.1225 21.3334C20.6869 21.3334 11.4166 28.447 11.4166 37.2222C11.4166 42.2648 14.4778 46.7587 19.2519 49.6696L17.9584 53.9358C17.6469 54.9632 18.4159 56 19.4896 56H24.1939C24.5402 56 24.8772 55.8878 25.1543 55.6798L28.8732 52.8888H35.3716L39.0905 55.6798C39.3676 55.8878 39.7046 56 40.051 56H44.7553C45.8289 56 46.598 54.9632 46.2862 53.9358L44.9929 49.6696C47.8372 47.9355 50.0734 45.6392 51.4166 43" stroke="#7E22CE" stroke-width="1.5" stroke-linecap="round" stroke-linejoin="round"/>
<path d="M39.4166 22.6666L51.4166 18.6666L51.1926 28.3421L56.75 30.6666V40L51.6142 42.6666" stroke="#7E22CE" stroke-width="1.5" stroke-linecap="round" stroke-linejoin="round"/>
<path d="M42.0833 34.6667C41.3471 34.6667 40.75 34.0696 40.75 33.3333C40.75 32.5971 41.3471 32 42.0833 32C42.8196 32 43.4167 32.5971 43.4167 33.3333C43.4167 34.0696 42.8196 34.6667 42.0833 34.6667Z" fill="#7E22CE" stroke="#7E22CE" stroke-width="1.5" stroke-linecap="round" stroke-linejoin="round"/>
<path d="M6.08337 26.6666C6.08337 26.6666 6.08337 33.0666 11.4167 34.6666" stroke="#7E22CE" stroke-width="1.5" stroke-linecap="round" stroke-linejoin="round"/>
<path d="M34.8855 20.6746C35.2295 19.6835 35.4167 18.617 35.4167 17.5059C35.4167 12.2559 31.238 8 26.0833 8C20.9287 8 16.75 12.2559 16.75 17.5059C16.75 20.017 17.706 22.3007 19.2674 24" stroke="#7E22CE" stroke-width="1.5" stroke-linejoin="round"/>
</svg>