<svg xmlns="http://www.w3.org/2000/svg" width="65" height="64" viewBox="0 0 65 64" fill="none">
<path d="M18.9167 50.6667C21.8622 50.6667 24.25 48.2789 24.25 45.3333C24.25 42.3877 21.8622 40 18.9167 40C15.9712 40 13.5834 42.3877 13.5834 45.3333C13.5834 48.2789 15.9712 50.6667 18.9167 50.6667Z" stroke="#7E22CE" stroke-width="1.5" stroke-miterlimit="1.5" stroke-linecap="round" stroke-linejoin="round"/>
<path d="M45.5833 50.6667C48.5289 50.6667 50.9167 48.2789 50.9167 45.3333C50.9167 42.3877 48.5289 40 45.5833 40C42.6377 40 40.25 42.3877 40.25 45.3333C40.25 48.2789 42.6377 50.6667 45.5833 50.6667Z" stroke="#7E22CE" stroke-width="1.5" stroke-miterlimit="1.5" stroke-linecap="round" stroke-linejoin="round"/>
<path d="M37.5834 45.3333V17.6C37.5834 16.7163 36.8671 16 35.9834 16H7.18337C6.29972 16 5.58337 16.7163 5.58337 17.6V43.7333C5.58337 44.6171 6.29972 45.3333 7.18337 45.3333H12.65" stroke="#7E22CE" stroke-width="1.5" stroke-linecap="round"/>
<path d="M37.5833 45.3334H24.3834" stroke="#7E22CE" stroke-width="1.5" stroke-linecap="round"/>
<path d="M37.5834 24H52.5436C53.1759 24 53.749 24.3724 54.0058 24.9502L58.7788 35.6896C58.8698 35.8944 58.9167 36.1157 58.9167 36.3395V43.7333C58.9167 44.6171 58.2004 45.3333 57.3167 45.3333H52.25" stroke="#7E22CE" stroke-width="1.5" stroke-linecap="round"/>
<path d="M37.5834 45.3334H40.25" stroke="#7E22CE" stroke-width="1.5" stroke-linecap="round"/>
</svg>