<svg xmlns="http://www.w3.org/2000/svg" width="64" height="64" viewBox="0 0 64 64" fill="none">
<path d="M43.9263 53.3335H10.9333C10.0496 53.3335 9.33325 52.6172 9.33325 51.7335V25.6001C9.33325 24.7165 10.0496 24.0001 10.9333 24.0001H18.3136C20.187 24.0001 21.923 23.0172 22.8869 21.4108L30.1146 9.36443C31.6743 6.76515 35.3477 6.51805 37.2413 8.88509C38.1338 10.0008 38.4215 11.4837 38.0109 12.8523L35.2845 21.9404C34.9765 22.967 35.7453 24.0001 36.817 24.0001H49.0173C52.5338 24.0001 55.0879 27.3441 54.1626 30.7367L49.0717 49.4033C48.4389 51.7239 46.3314 53.3335 43.9263 53.3335Z" stroke="#7E22CE" stroke-width="1.5" stroke-linecap="round"/>
<path d="M18.6667 53.3336V24.0002" stroke="#7E22CE" stroke-width="1.5" stroke-linecap="round" stroke-linejoin="round"/>
</svg>