<svg width="127" height="33" viewBox="0 0 127 33" fill="none" xmlns="http://www.w3.org/2000/svg">
<path d="M37.503 32.5244H50.4208L18.4209 0.524414H5.50305L37.503 32.5244Z" fill="#0F172A"/>
<path d="M25.0574 0.524416L55.9048 31.3718V0.524414H47.5569V10.2635L37.8177 0.524414L25.0574 0.524416Z" fill="#0F172A"/>
<path d="M0.0952148 1.5957V32.5243H8.44303V22.7851L18.1821 32.5243H31.0239L0.0952148 1.5957Z" fill="#0F172A"/>
<path d="M74.311 20.0596C74.311 19.7549 74.2642 19.4814 74.1704 19.2393C74.0845 18.9893 73.9204 18.7627 73.6782 18.5596C73.436 18.3486 73.0962 18.1416 72.6587 17.9385C72.2212 17.7354 71.6548 17.5244 70.9595 17.3057C70.186 17.0557 69.4517 16.7744 68.7563 16.4619C68.0688 16.1494 67.4595 15.7861 66.9282 15.3721C66.4048 14.9502 65.9907 14.4619 65.686 13.9072C65.3892 13.3525 65.2407 12.708 65.2407 11.9736C65.2407 11.2627 65.397 10.6182 65.7095 10.04C66.022 9.4541 66.4595 8.9541 67.022 8.54004C67.5845 8.11816 68.2485 7.79395 69.0142 7.56738C69.7876 7.34082 70.6353 7.22754 71.5571 7.22754C72.8149 7.22754 73.9126 7.4541 74.8501 7.90723C75.7876 8.36035 76.5142 8.98145 77.0298 9.77051C77.5532 10.5596 77.8149 11.4619 77.8149 12.4775H74.3228C74.3228 11.9775 74.2173 11.54 74.0063 11.165C73.8032 10.7822 73.4907 10.4814 73.0688 10.2627C72.6548 10.0439 72.1313 9.93457 71.4985 9.93457C70.8892 9.93457 70.3813 10.0283 69.9751 10.2158C69.5688 10.3955 69.2642 10.6416 69.061 10.9541C68.8579 11.2588 68.7563 11.6025 68.7563 11.9854C68.7563 12.2744 68.8267 12.5361 68.9673 12.7705C69.1157 13.0049 69.3345 13.2236 69.6235 13.4268C69.9126 13.6299 70.2681 13.8213 70.6899 14.001C71.1118 14.1807 71.6001 14.3564 72.1548 14.5283C73.0845 14.8096 73.9009 15.126 74.604 15.4775C75.3149 15.8291 75.9087 16.2236 76.3853 16.6611C76.8618 17.0986 77.2212 17.5947 77.4634 18.1494C77.7056 18.7041 77.8267 19.333 77.8267 20.0361C77.8267 20.7783 77.6821 21.4424 77.3931 22.0283C77.104 22.6143 76.686 23.1104 76.1392 23.5166C75.5923 23.9229 74.9399 24.2314 74.1821 24.4424C73.4243 24.6533 72.5767 24.7588 71.6392 24.7588C70.7954 24.7588 69.9634 24.6494 69.1431 24.4307C68.3228 24.2041 67.5767 23.8643 66.9048 23.4111C66.2407 22.958 65.7095 22.3799 65.311 21.6768C64.9126 20.9736 64.7134 20.1416 64.7134 19.1807H68.2407C68.2407 19.7119 68.3228 20.1611 68.4868 20.5283C68.6509 20.8955 68.8813 21.1924 69.1782 21.4189C69.4829 21.6455 69.8423 21.8096 70.2563 21.9111C70.6782 22.0127 71.1392 22.0635 71.6392 22.0635C72.2485 22.0635 72.7485 21.9775 73.1392 21.8057C73.5376 21.6338 73.8306 21.3955 74.0181 21.0908C74.2134 20.7861 74.311 20.4424 74.311 20.0596ZM79.4673 18.3135V18.0674C79.4673 17.1377 79.6001 16.2822 79.8657 15.501C80.1313 14.7119 80.5181 14.0283 81.0259 13.4502C81.5337 12.8721 82.1587 12.4229 82.9009 12.1025C83.6431 11.7744 84.4946 11.6104 85.4556 11.6104C86.4165 11.6104 87.272 11.7744 88.022 12.1025C88.772 12.4229 89.4009 12.8721 89.9087 13.4502C90.4243 14.0283 90.8149 14.7119 91.0806 15.501C91.3462 16.2822 91.479 17.1377 91.479 18.0674V18.3135C91.479 19.2354 91.3462 20.0908 91.0806 20.8799C90.8149 21.6611 90.4243 22.3447 89.9087 22.9307C89.4009 23.5088 88.7759 23.958 88.0337 24.2783C87.2915 24.5986 86.4399 24.7588 85.479 24.7588C84.5181 24.7588 83.6626 24.5986 82.9126 24.2783C82.1704 23.958 81.5415 23.5088 81.0259 22.9307C80.5181 22.3447 80.1313 21.6611 79.8657 20.8799C79.6001 20.0908 79.4673 19.2354 79.4673 18.3135ZM82.8423 18.0674V18.3135C82.8423 18.8447 82.8892 19.3408 82.9829 19.8018C83.0767 20.2627 83.2251 20.6689 83.4282 21.0205C83.6392 21.3643 83.9126 21.6338 84.2485 21.8291C84.5845 22.0244 84.9946 22.1221 85.479 22.1221C85.9478 22.1221 86.3501 22.0244 86.686 21.8291C87.022 21.6338 87.2915 21.3643 87.4946 21.0205C87.6978 20.6689 87.8462 20.2627 87.9399 19.8018C88.0415 19.3408 88.0923 18.8447 88.0923 18.3135V18.0674C88.0923 17.5518 88.0415 17.0674 87.9399 16.6143C87.8462 16.1533 87.6938 15.7471 87.4829 15.3955C87.2798 15.0361 87.0103 14.7549 86.6743 14.5518C86.3384 14.3486 85.9321 14.2471 85.4556 14.2471C84.979 14.2471 84.5728 14.3486 84.2368 14.5518C83.9087 14.7549 83.6392 15.0361 83.4282 15.3955C83.2251 15.7471 83.0767 16.1533 82.9829 16.6143C82.8892 17.0674 82.8423 17.5518 82.8423 18.0674ZM97.1157 6.52441V24.5244H93.729V6.52441H97.1157ZM103.467 6.52441V24.5244H100.081V6.52441H103.467ZM112.092 24.7588C111.108 24.7588 110.225 24.6025 109.444 24.29C108.663 23.9697 107.999 23.5283 107.452 22.9658C106.913 22.4033 106.499 21.751 106.209 21.0088C105.92 20.2588 105.776 19.4619 105.776 18.6182V18.1494C105.776 17.1885 105.913 16.3096 106.186 15.5127C106.459 14.7158 106.85 14.0244 107.358 13.4385C107.874 12.8525 108.499 12.4033 109.233 12.0908C109.967 11.7705 110.795 11.6104 111.717 11.6104C112.616 11.6104 113.413 11.7588 114.108 12.0557C114.803 12.3525 115.385 12.7744 115.854 13.3213C116.331 13.8682 116.69 14.5244 116.932 15.29C117.174 16.0479 117.295 16.8916 117.295 17.8213V19.2275H107.217V16.9775H113.979V16.7197C113.979 16.251 113.893 15.833 113.721 15.4658C113.557 15.0908 113.307 14.7939 112.971 14.5752C112.635 14.3564 112.206 14.2471 111.682 14.2471C111.237 14.2471 110.854 14.3447 110.534 14.54C110.213 14.7354 109.952 15.0088 109.749 15.3604C109.553 15.7119 109.405 16.126 109.303 16.6025C109.209 17.0713 109.163 17.5869 109.163 18.1494V18.6182C109.163 19.126 109.233 19.5947 109.374 20.0244C109.522 20.4541 109.729 20.8252 109.995 21.1377C110.268 21.4502 110.596 21.6924 110.979 21.8643C111.37 22.0361 111.811 22.1221 112.303 22.1221C112.913 22.1221 113.479 22.0049 114.002 21.7705C114.534 21.5283 114.991 21.165 115.374 20.6807L117.014 22.4619C116.749 22.8447 116.385 23.2119 115.924 23.5635C115.471 23.915 114.924 24.2041 114.284 24.4307C113.643 24.6494 112.913 24.7588 112.092 24.7588ZM122.592 14.6104V24.5244H119.217V11.8447H122.393L122.592 14.6104ZM126.413 11.7627L126.354 14.8916C126.19 14.8682 125.991 14.8486 125.756 14.833C125.53 14.8096 125.323 14.7979 125.135 14.7979C124.659 14.7979 124.245 14.8604 123.893 14.9854C123.549 15.1025 123.26 15.2783 123.026 15.5127C122.799 15.7471 122.627 16.0322 122.51 16.3682C122.401 16.7041 122.338 17.0869 122.323 17.5166L121.643 17.3057C121.643 16.4854 121.725 15.7314 121.889 15.0439C122.053 14.3486 122.292 13.7432 122.604 13.2275C122.924 12.7119 123.315 12.3135 123.776 12.0322C124.237 11.751 124.764 11.6104 125.358 11.6104C125.545 11.6104 125.737 11.626 125.932 11.6572C126.127 11.6807 126.288 11.7158 126.413 11.7627Z" fill="#0F172A"/>
</svg>
