<svg xmlns="http://www.w3.org/2000/svg" width="24" height="24" viewBox="0 0 24 24" fill="none">
<path d="M15.586 10.657L11.636 6.707C11.4538 6.51839 11.353 6.26579 11.3553 6.00359C11.3576 5.7414 11.4628 5.49058 11.6482 5.30518C11.8336 5.11977 12.0844 5.0146 12.3466 5.01232C12.6088 5.01004 12.8614 5.11084 13.05 5.293L18.707 10.95C18.8002 11.0426 18.8741 11.1528 18.9246 11.2741C18.9751 11.3955 19.001 11.5256 19.001 11.657C19.001 11.7884 18.9751 11.9185 18.9246 12.0398C18.8741 12.1612 18.8002 12.2713 18.707 12.364L13.05 18.021C12.9578 18.1165 12.8474 18.1927 12.7254 18.2451C12.6034 18.2975 12.4722 18.3251 12.3394 18.3262C12.2066 18.3274 12.0749 18.3021 11.952 18.2518C11.8291 18.2015 11.7175 18.1273 11.6236 18.0334C11.5297 17.9395 11.4555 17.8278 11.4052 17.7049C11.3549 17.5821 11.3296 17.4504 11.3307 17.3176C11.3319 17.1848 11.3595 17.0536 11.4119 16.9316C11.4643 16.8096 11.5405 16.6992 11.636 16.607L15.586 12.657H6C5.73478 12.657 5.48043 12.5516 5.29289 12.3641C5.10536 12.1766 5 11.9222 5 11.657C5 11.3918 5.10536 11.1374 5.29289 10.9499C5.48043 10.7624 5.73478 10.657 6 10.657H15.586Z" fill="#78350F"/>
</svg>