<svg width="81" height="25" viewBox="0 0 81 25" fill="none" xmlns="http://www.w3.org/2000/svg">
<path d="M10.8906 19.8281C10.8906 19.5052 10.7969 19.2135 10.6094 18.9531C10.4219 18.6927 10.0729 18.4531 9.5625 18.2344C9.0625 18.0052 8.33854 17.7969 7.39062 17.6094C6.53646 17.4219 5.73958 17.1875 5 16.9062C4.27083 16.6146 3.63542 16.2656 3.09375 15.8594C2.5625 15.4531 2.14583 14.974 1.84375 14.4219C1.54167 13.8594 1.39062 13.2188 1.39062 12.5C1.39062 11.7917 1.54167 11.125 1.84375 10.5C2.15625 9.875 2.59896 9.32292 3.17188 8.84375C3.75521 8.35417 4.46354 7.97396 5.29688 7.70312C6.14062 7.42188 7.08854 7.28125 8.14062 7.28125C9.60938 7.28125 10.8698 7.51562 11.9219 7.98438C12.9844 8.45312 13.7969 9.09896 14.3594 9.92188C14.9323 10.7344 15.2188 11.6615 15.2188 12.7031H10.7188C10.7188 12.2656 10.625 11.875 10.4375 11.5312C10.2604 11.1771 9.97917 10.901 9.59375 10.7031C9.21875 10.4948 8.72917 10.3906 8.125 10.3906C7.625 10.3906 7.19271 10.4792 6.82812 10.6562C6.46354 10.8229 6.18229 11.0521 5.98438 11.3438C5.79688 11.625 5.70312 11.9375 5.70312 12.2812C5.70312 12.5417 5.75521 12.776 5.85938 12.9844C5.97396 13.1823 6.15625 13.3646 6.40625 13.5312C6.65625 13.6979 6.97917 13.8542 7.375 14C7.78125 14.1354 8.28125 14.2604 8.875 14.375C10.0938 14.625 11.1823 14.9531 12.1406 15.3594C13.099 15.7552 13.8594 16.2969 14.4219 16.9844C14.9844 17.6615 15.2656 18.5521 15.2656 19.6562C15.2656 20.4062 15.099 21.0938 14.7656 21.7188C14.4323 22.3438 13.9531 22.8906 13.3281 23.3594C12.7031 23.8177 11.9531 24.1771 11.0781 24.4375C10.2135 24.6875 9.23958 24.8125 8.15625 24.8125C6.58333 24.8125 5.25 24.5312 4.15625 23.9688C3.07292 23.4062 2.25 22.6927 1.6875 21.8281C1.13542 20.9531 0.859375 20.0573 0.859375 19.1406H5.125C5.14583 19.7552 5.30208 20.25 5.59375 20.625C5.89583 21 6.27604 21.2708 6.73438 21.4375C7.20312 21.6042 7.70833 21.6875 8.25 21.6875C8.83333 21.6875 9.31771 21.6094 9.70312 21.4531C10.0885 21.2865 10.3802 21.0677 10.5781 20.7969C10.7865 20.5156 10.8906 20.1927 10.8906 19.8281ZM17.4688 16.2188V15.8906C17.4688 14.651 17.6458 13.5104 18 12.4688C18.3542 11.4167 18.8698 10.5052 19.5469 9.73438C20.224 8.96354 21.0573 8.36458 22.0469 7.9375C23.0365 7.5 24.1719 7.28125 25.4531 7.28125C26.7344 7.28125 27.875 7.5 28.875 7.9375C29.875 8.36458 30.7135 8.96354 31.3906 9.73438C32.0781 10.5052 32.599 11.4167 32.9531 12.4688C33.3073 13.5104 33.4844 14.651 33.4844 15.8906V16.2188C33.4844 17.4479 33.3073 18.5885 32.9531 19.6406C32.599 20.6823 32.0781 21.5938 31.3906 22.375C30.7135 23.1458 29.8802 23.7448 28.8906 24.1719C27.901 24.599 26.7656 24.8125 25.4844 24.8125C24.2031 24.8125 23.0625 24.599 22.0625 24.1719C21.0729 23.7448 20.2344 23.1458 19.5469 22.375C18.8698 21.5938 18.3542 20.6823 18 19.6406C17.6458 18.5885 17.4688 17.4479 17.4688 16.2188ZM21.9688 15.8906V16.2188C21.9688 16.9271 22.0312 17.5885 22.1562 18.2031C22.2812 18.8177 22.4792 19.3594 22.75 19.8281C23.0312 20.2865 23.3958 20.6458 23.8438 20.9062C24.2917 21.1667 24.8385 21.2969 25.4844 21.2969C26.1094 21.2969 26.6458 21.1667 27.0938 20.9062C27.5417 20.6458 27.901 20.2865 28.1719 19.8281C28.4427 19.3594 28.6406 18.8177 28.7656 18.2031C28.901 17.5885 28.9688 16.9271 28.9688 16.2188V15.8906C28.9688 15.2031 28.901 14.5573 28.7656 13.9531C28.6406 13.3385 28.4375 12.7969 28.1562 12.3281C27.8854 11.849 27.526 11.474 27.0781 11.2031C26.6302 10.9323 26.0885 10.7969 25.4531 10.7969C24.8177 10.7969 24.276 10.9323 23.8281 11.2031C23.3906 11.474 23.0312 11.849 22.75 12.3281C22.4792 12.7969 22.2812 13.3385 22.1562 13.9531C22.0312 14.5573 21.9688 15.2031 21.9688 15.8906ZM41 0.5V24.5H36.4844V0.5H41ZM49.4688 0.5V24.5H44.9531V0.5H49.4688ZM60.9688 24.8125C59.6562 24.8125 58.4792 24.6042 57.4375 24.1875C56.3958 23.7604 55.5104 23.1719 54.7812 22.4219C54.0625 21.6719 53.5104 20.8021 53.125 19.8125C52.7396 18.8125 52.5469 17.75 52.5469 16.625V16C52.5469 14.7188 52.7292 13.5469 53.0938 12.4844C53.4583 11.4219 53.9792 10.5 54.6562 9.71875C55.3438 8.9375 56.1771 8.33854 57.1562 7.92188C58.1354 7.49479 59.2396 7.28125 60.4688 7.28125C61.6667 7.28125 62.7292 7.47917 63.6562 7.875C64.5833 8.27083 65.3594 8.83333 65.9844 9.5625C66.6198 10.2917 67.099 11.1667 67.4219 12.1875C67.7448 13.1979 67.9062 14.3229 67.9062 15.5625V17.4375H54.4688V14.4375H63.4844V14.0938C63.4844 13.4688 63.3698 12.9115 63.1406 12.4219C62.9219 11.9219 62.5885 11.526 62.1406 11.2344C61.6927 10.9427 61.1198 10.7969 60.4219 10.7969C59.8281 10.7969 59.3177 10.9271 58.8906 11.1875C58.4635 11.4479 58.1146 11.8125 57.8438 12.2812C57.5833 12.75 57.3854 13.3021 57.25 13.9375C57.125 14.5625 57.0625 15.25 57.0625 16V16.625C57.0625 17.3021 57.1562 17.9271 57.3438 18.5C57.5417 19.0729 57.8177 19.5677 58.1719 19.9844C58.5365 20.401 58.974 20.724 59.4844 20.9531C60.0052 21.1823 60.5938 21.2969 61.25 21.2969C62.0625 21.2969 62.8177 21.1406 63.5156 20.8281C64.224 20.5052 64.8333 20.0208 65.3438 19.375L67.5312 21.75C67.1771 22.2604 66.6927 22.75 66.0781 23.2188C65.474 23.6875 64.7448 24.0729 63.8906 24.375C63.0365 24.6667 62.0625 24.8125 60.9688 24.8125ZM74.9688 11.2812V24.5H70.4688V7.59375H74.7031L74.9688 11.2812ZM80.0625 7.48438L79.9844 11.6562C79.7656 11.625 79.5 11.599 79.1875 11.5781C78.8854 11.5469 78.6094 11.5312 78.3594 11.5312C77.724 11.5312 77.1719 11.6146 76.7031 11.7812C76.2448 11.9375 75.8594 12.1719 75.5469 12.4844C75.2448 12.7969 75.0156 13.1771 74.8594 13.625C74.7135 14.0729 74.6302 14.5833 74.6094 15.1562L73.7031 14.875C73.7031 13.7812 73.8125 12.776 74.0312 11.8594C74.25 10.9323 74.5677 10.125 74.9844 9.4375C75.4115 8.75 75.9323 8.21875 76.5469 7.84375C77.1615 7.46875 77.8646 7.28125 78.6562 7.28125C78.9062 7.28125 79.1615 7.30208 79.4219 7.34375C79.6823 7.375 79.8958 7.42188 80.0625 7.48438Z" fill="#0F172A"/>
</svg>
